<?xml version="1.0" encoding="UTF-8"?>
<svg xmlns="http://www.w3.org/2000/svg" style="height: 0; width: 0; position: absolute; visibility: hidden">
  <symbol id="user" class="h-6 w-6" fill="none" viewBox="0 0 24 24" stroke="currentColor">
    <path stroke-linecap="round" stroke-linejoin="round" stroke-width="2" d="M16 7a4 4 0 11-8 0 4 4 0 018 0zM12 14a7 7 0 00-7 7h14a7 7 0 00-7-7z" />
  </symbol>

  <symbol id="pencil-fill" class="h-5 w-5" viewBox="0 0 20 20" fill="currentColor">
    <path d="M13.586 3.586a2 2 0 112.828 2.828l-.793.793-2.828-2.828.793-.793zM11.379 5.793L3 14.172V17h2.828l8.38-8.379-2.83-2.828z" />
  </symbol>

  <symbol id="logo" class="h-5 w-5" viewBox="0 0 20 20" fill="currentColor">
    <polyline points="2,16 2,4 10,10 18,4 18,16" fill="none" stroke="currentColor" />
      <polyline points="16,16 16,8 8,16 16,16" fill="currentColor" />
      <polyline points="4,16 4,8 10,12" fill="currentColor" />
  </symbol>
</svg>
